<mxfile host="Electron" agent="Mozilla/5.0 (Windows NT 10.0; Win64; x64) AppleWebKit/537.36 (KHTML, like Gecko) draw.io/25.0.1 Chrome/128.0.6613.186 Electron/32.2.6 Safari/537.36" version="25.0.1">
  <diagram name="Page-1" id="3yqpxKQvHaOyZTGhgoW6">
    <mxGraphModel dx="-814" dy="-1137" grid="1" gridSize="10" guides="1" tooltips="1" connect="1" arrows="1" fold="1" page="1" pageScale="1" pageWidth="850" pageHeight="1100" math="0" shadow="0">
      <root>
        <mxCell id="0" />
        <mxCell id="1" parent="0" />
        <mxCell id="31KH03YeSgKQCPKSt3aT-2" value="" style="rounded=1;whiteSpace=wrap;html=1;fillColor=#FFFFCC;strokeColor=default;arcSize=0;strokeWidth=2;container=0;" vertex="1" parent="1">
          <mxGeometry x="2778" y="2251.55" width="400" height="228.73" as="geometry" />
        </mxCell>
        <mxCell id="31KH03YeSgKQCPKSt3aT-3" value="" style="ellipse;whiteSpace=wrap;html=1;aspect=fixed;fillStyle=auto;gradientColor=none;fillColor=#009900;shadow=0;strokeWidth=2;container=0;" vertex="1" parent="1">
          <mxGeometry x="2941.2631818181817" y="2298.8732394366198" width="170" height="170" as="geometry" />
        </mxCell>
        <mxCell id="31KH03YeSgKQCPKSt3aT-4" value="" style="ellipse;whiteSpace=wrap;html=1;aspect=fixed;fillStyle=auto;gradientColor=none;fillColor=#007FFF;shadow=0;strokeWidth=2;container=0;" vertex="1" parent="1">
          <mxGeometry x="2844.7282386363636" y="2298.8732394366198" width="170" height="170" as="geometry" />
        </mxCell>
        <mxCell id="31KH03YeSgKQCPKSt3aT-5" value="&lt;font face=&quot;Comic Sans MS&quot; style=&quot;font-size: 18px;&quot;&gt;&lt;b style=&quot;&quot;&gt;Sample Space&lt;/b&gt;&lt;/font&gt;" style="rounded=1;whiteSpace=wrap;html=1;fillColor=#FFFF00;strokeColor=none;fontColor=#000000;arcSize=20;container=0;" vertex="1" parent="1">
          <mxGeometry x="2789.913181818182" y="2259.43661971831" width="139.0909090909091" height="23.661971830985912" as="geometry" />
        </mxCell>
        <mxCell id="31KH03YeSgKQCPKSt3aT-6" value="&lt;font face=&quot;Comic Sans MS&quot;&gt;&lt;b&gt;A&lt;/b&gt;&lt;/font&gt;" style="rounded=1;whiteSpace=wrap;html=1;fillColor=#007FFF;strokeColor=none;fontColor=#FFFFFF;arcSize=20;fontSize=18;container=0;" vertex="1" parent="1">
          <mxGeometry x="2914.1842613636363" y="2306.760563380282" width="26.079545454545457" height="23.661971830985912" as="geometry" />
        </mxCell>
        <mxCell id="31KH03YeSgKQCPKSt3aT-7" value="&lt;font face=&quot;Comic Sans MS&quot;&gt;&lt;b&gt;B&lt;/b&gt;&lt;/font&gt;" style="rounded=1;whiteSpace=wrap;html=1;fillColor=#009900;strokeColor=none;fontColor=#FFFFFF;arcSize=20;fontSize=18;container=0;" vertex="1" parent="1">
          <mxGeometry x="3032.9565909090907" y="2306.760563380282" width="26.079545454545457" height="23.661971830985912" as="geometry" />
        </mxCell>
        <mxCell id="31KH03YeSgKQCPKSt3aT-9" value="&lt;div style=&quot;text-align: start;&quot;&gt;&lt;font face=&quot;Comic Sans MS&quot;&gt;&lt;span style=&quot;font-size: 18px; text-wrap: nowrap;&quot;&gt;&lt;b&gt;&lt;i&gt;P(A)&lt;/i&gt;&lt;/b&gt;&lt;/span&gt;&lt;/font&gt;&lt;/div&gt;" style="rounded=1;whiteSpace=wrap;html=1;fillColor=none;strokeColor=none;arcSize=10;container=0;fontColor=#FFFFFF;" vertex="1" parent="1">
          <mxGeometry x="2844.1790909090914" y="2372.823802816901" width="104.31818181818183" height="22.08450704225352" as="geometry" />
        </mxCell>
        <mxCell id="31KH03YeSgKQCPKSt3aT-12" value="" style="rounded=1;whiteSpace=wrap;html=1;arcSize=18;strokeColor=none;fillColor=none;container=0;" vertex="1" parent="1">
          <mxGeometry x="2598" y="2250" width="163.86" height="230.28" as="geometry" />
        </mxCell>
        <mxCell id="31KH03YeSgKQCPKSt3aT-13" value="&lt;div style=&quot;text-align: start;&quot;&gt;&lt;b style=&quot;font-family: &amp;quot;Comic Sans MS&amp;quot;; font-size: 18px; text-wrap: nowrap;&quot;&gt;&lt;i&gt;P(B)&lt;/i&gt;&lt;/b&gt;&lt;br&gt;&lt;/div&gt;" style="rounded=1;whiteSpace=wrap;html=1;fillColor=none;strokeColor=none;arcSize=10;container=0;fontColor=#FFFFFF;" vertex="1" parent="1">
          <mxGeometry x="3014.73" y="2372.96" width="93.27" height="22.08" as="geometry" />
        </mxCell>
        <mxCell id="31KH03YeSgKQCPKSt3aT-17" value="" style="whiteSpace=wrap;html=1;shape=mxgraph.basic.pointed_oval;fillColor=#00FFFF;strokeWidth=2;" vertex="1" parent="1">
          <mxGeometry x="2929" y="2314" width="99" height="140" as="geometry" />
        </mxCell>
        <mxCell id="31KH03YeSgKQCPKSt3aT-18" value="&lt;div style=&quot;text-align: start;&quot;&gt;&lt;span style=&quot;background-color: initial; text-wrap: nowrap;&quot;&gt;&lt;font style=&quot;font-size: 18px;&quot; face=&quot;Comic Sans MS&quot; color=&quot;#222222&quot;&gt;&lt;b style=&quot;&quot;&gt;&lt;i style=&quot;&quot;&gt;P(&lt;/i&gt;&lt;/b&gt;&lt;/font&gt;&lt;/span&gt;&lt;span style=&quot;font-family: &amp;quot;Comic Sans MS&amp;quot;; font-size: 18px; font-weight: 700; background-color: initial; text-align: center;&quot;&gt;Aâˆ©B)&lt;/span&gt;&lt;/div&gt;" style="rounded=1;whiteSpace=wrap;html=1;fillColor=none;strokeColor=none;arcSize=10;container=0;" vertex="1" parent="1">
          <mxGeometry x="2948.5" y="2372.8300000000004" width="60" height="22.08" as="geometry" />
        </mxCell>
        <mxCell id="31KH03YeSgKQCPKSt3aT-20" value="" style="rounded=1;whiteSpace=wrap;html=1;arcSize=18;strokeColor=none;fillColor=none;container=0;" vertex="1" parent="1">
          <mxGeometry x="3188" y="2250" width="163.86" height="230.28" as="geometry" />
        </mxCell>
        <mxCell id="31KH03YeSgKQCPKSt3aT-34" value="" style="rounded=1;whiteSpace=wrap;html=1;fillColor=#FFFFCC;strokeColor=default;arcSize=0;strokeWidth=2;container=0;" vertex="1" parent="1">
          <mxGeometry x="2778" y="2521.55" width="400" height="228.73" as="geometry" />
        </mxCell>
        <mxCell id="31KH03YeSgKQCPKSt3aT-36" value="" style="ellipse;whiteSpace=wrap;html=1;aspect=fixed;fillStyle=auto;gradientColor=none;fillColor=#007FFF;shadow=0;strokeWidth=2;container=0;" vertex="1" parent="1">
          <mxGeometry x="2844.7282386363636" y="2568.8732394366198" width="170" height="170" as="geometry" />
        </mxCell>
        <mxCell id="31KH03YeSgKQCPKSt3aT-37" value="&lt;font face=&quot;Comic Sans MS&quot; style=&quot;font-size: 18px;&quot;&gt;&lt;b style=&quot;&quot;&gt;Sample Space&lt;/b&gt;&lt;/font&gt;" style="rounded=1;whiteSpace=wrap;html=1;fillColor=#FFFF00;strokeColor=none;fontColor=#000000;arcSize=20;container=0;" vertex="1" parent="1">
          <mxGeometry x="2789.913181818182" y="2529.43661971831" width="139.0909090909091" height="23.661971830985912" as="geometry" />
        </mxCell>
        <mxCell id="31KH03YeSgKQCPKSt3aT-38" value="&lt;font face=&quot;Comic Sans MS&quot;&gt;&lt;b&gt;A&lt;/b&gt;&lt;/font&gt;" style="rounded=1;whiteSpace=wrap;html=1;fillColor=#007FFF;strokeColor=none;fontColor=#FFFFFF;arcSize=20;fontSize=21;container=0;" vertex="1" parent="1">
          <mxGeometry x="2916.6842613636363" y="2590.0005633802816" width="26.079545454545457" height="23.661971830985912" as="geometry" />
        </mxCell>
        <mxCell id="31KH03YeSgKQCPKSt3aT-40" value="&lt;div style=&quot;text-align: start;&quot;&gt;&lt;font face=&quot;Comic Sans MS&quot;&gt;&lt;span style=&quot;font-size: 18px; text-wrap: nowrap;&quot;&gt;&lt;b&gt;&lt;i&gt;P(A)&lt;/i&gt;&lt;/b&gt;&lt;/span&gt;&lt;/font&gt;&lt;/div&gt;" style="rounded=1;whiteSpace=wrap;html=1;fillColor=none;strokeColor=none;arcSize=10;container=0;fontColor=#FFFFFF;" vertex="1" parent="1">
          <mxGeometry x="2875.0690909090913" y="2642.8338028169014" width="104.31818181818183" height="22.08450704225352" as="geometry" />
        </mxCell>
        <mxCell id="31KH03YeSgKQCPKSt3aT-41" value="" style="rounded=1;whiteSpace=wrap;html=1;arcSize=18;strokeColor=none;fillColor=none;container=0;" vertex="1" parent="1">
          <mxGeometry x="2598" y="2520" width="163.86" height="230.28" as="geometry" />
        </mxCell>
        <mxCell id="31KH03YeSgKQCPKSt3aT-45" value="" style="rounded=1;whiteSpace=wrap;html=1;arcSize=18;strokeColor=none;fillColor=none;container=0;" vertex="1" parent="1">
          <mxGeometry x="3188" y="2520" width="163.86" height="230.28" as="geometry" />
        </mxCell>
        <mxCell id="31KH03YeSgKQCPKSt3aT-47" value="&lt;font face=&quot;Comic Sans MS&quot;&gt;&lt;b&gt;A&#39;&lt;/b&gt;&lt;/font&gt;" style="rounded=1;whiteSpace=wrap;html=1;fillColor=none;strokeColor=none;fontColor=#000000;arcSize=20;fontSize=22;container=0;" vertex="1" parent="1">
          <mxGeometry x="3070.0042613636365" y="2630.0005633802816" width="26.079545454545457" height="23.661971830985912" as="geometry" />
        </mxCell>
        <mxCell id="31KH03YeSgKQCPKSt3aT-56" value="" style="rounded=1;whiteSpace=wrap;html=1;fillColor=#FFFFCC;strokeColor=default;arcSize=0;strokeWidth=2;container=0;" vertex="1" parent="1">
          <mxGeometry x="2778" y="2791.55" width="400" height="228.73" as="geometry" />
        </mxCell>
        <mxCell id="31KH03YeSgKQCPKSt3aT-57" value="" style="ellipse;whiteSpace=wrap;html=1;aspect=fixed;fillStyle=auto;gradientColor=none;fillColor=#009900;shadow=0;strokeWidth=2;container=0;" vertex="1" parent="1">
          <mxGeometry x="2941.2631818181817" y="2838.8732394366198" width="170" height="170" as="geometry" />
        </mxCell>
        <mxCell id="31KH03YeSgKQCPKSt3aT-58" value="" style="ellipse;whiteSpace=wrap;html=1;aspect=fixed;fillStyle=auto;gradientColor=none;fillColor=#007FFF;shadow=0;strokeWidth=2;container=0;" vertex="1" parent="1">
          <mxGeometry x="2844.7282386363636" y="2838.8732394366198" width="170" height="170" as="geometry" />
        </mxCell>
        <mxCell id="31KH03YeSgKQCPKSt3aT-59" value="&lt;font face=&quot;Comic Sans MS&quot; style=&quot;font-size: 18px;&quot;&gt;&lt;b style=&quot;&quot;&gt;Sample Space&lt;/b&gt;&lt;/font&gt;" style="rounded=1;whiteSpace=wrap;html=1;fillColor=#FFFF00;strokeColor=none;fontColor=#000000;arcSize=20;container=0;" vertex="1" parent="1">
          <mxGeometry x="2789.913181818182" y="2799.43661971831" width="139.0909090909091" height="23.661971830985912" as="geometry" />
        </mxCell>
        <mxCell id="31KH03YeSgKQCPKSt3aT-61" value="&lt;font face=&quot;Comic Sans MS&quot;&gt;&lt;b&gt;Likes Chocolate&lt;/b&gt;&lt;/font&gt;" style="rounded=1;whiteSpace=wrap;html=1;fillColor=#009900;strokeColor=none;fontColor=#FFFFFF;arcSize=20;fontSize=16;container=0;" vertex="1" parent="1">
          <mxGeometry x="3040.9265909090905" y="2860.0005633802816" width="26.079545454545457" height="23.661971830985912" as="geometry" />
        </mxCell>
        <mxCell id="31KH03YeSgKQCPKSt3aT-62" value="&lt;div style=&quot;text-align: start;&quot;&gt;&lt;font face=&quot;Comic Sans MS&quot;&gt;&lt;span style=&quot;font-size: 18px; text-wrap: nowrap;&quot;&gt;&lt;b&gt;&lt;i&gt;P(A)&lt;/i&gt;&lt;/b&gt;&lt;/span&gt;&lt;/font&gt;&lt;/div&gt;" style="rounded=1;whiteSpace=wrap;html=1;fillColor=none;strokeColor=none;arcSize=10;container=0;fontColor=#FFFFFF;" vertex="1" parent="1">
          <mxGeometry x="2844.1790909090914" y="2912.823802816901" width="104.31818181818183" height="22.08450704225352" as="geometry" />
        </mxCell>
        <mxCell id="31KH03YeSgKQCPKSt3aT-63" value="" style="rounded=1;whiteSpace=wrap;html=1;arcSize=18;strokeColor=none;fillColor=none;container=0;" vertex="1" parent="1">
          <mxGeometry x="2598" y="2790" width="163.86" height="230.28" as="geometry" />
        </mxCell>
        <mxCell id="31KH03YeSgKQCPKSt3aT-64" value="&lt;div style=&quot;text-align: start;&quot;&gt;&lt;b style=&quot;font-family: &amp;quot;Comic Sans MS&amp;quot;; font-size: 18px; text-wrap: nowrap;&quot;&gt;&lt;i&gt;P(B)&lt;/i&gt;&lt;/b&gt;&lt;br&gt;&lt;/div&gt;" style="rounded=1;whiteSpace=wrap;html=1;fillColor=none;strokeColor=none;arcSize=10;container=0;fontColor=#FFFFFF;" vertex="1" parent="1">
          <mxGeometry x="3014.73" y="2912.96" width="93.27" height="22.08" as="geometry" />
        </mxCell>
        <mxCell id="31KH03YeSgKQCPKSt3aT-65" value="" style="whiteSpace=wrap;html=1;shape=mxgraph.basic.pointed_oval;fillColor=#00FFFF;strokeWidth=2;" vertex="1" parent="1">
          <mxGeometry x="2929" y="2854" width="99" height="140" as="geometry" />
        </mxCell>
        <mxCell id="31KH03YeSgKQCPKSt3aT-66" value="&lt;div style=&quot;text-align: start;&quot;&gt;&lt;span style=&quot;background-color: initial; text-wrap: nowrap;&quot;&gt;&lt;font style=&quot;font-size: 18px;&quot; face=&quot;Comic Sans MS&quot; color=&quot;#222222&quot;&gt;&lt;b style=&quot;&quot;&gt;&lt;i style=&quot;&quot;&gt;P(A&lt;/i&gt;&lt;/b&gt;&lt;/font&gt;&lt;/span&gt;&lt;span style=&quot;font-family: &amp;quot;Comic Sans MS&amp;quot;; font-size: 18px; font-weight: 700; background-color: initial; text-align: center;&quot;&gt;âˆ©B)&lt;/span&gt;&lt;/div&gt;" style="rounded=1;whiteSpace=wrap;html=1;fillColor=none;strokeColor=none;arcSize=10;container=0;" vertex="1" parent="1">
          <mxGeometry x="2948.5" y="2912.8300000000004" width="60" height="22.08" as="geometry" />
        </mxCell>
        <mxCell id="31KH03YeSgKQCPKSt3aT-67" value="" style="rounded=1;whiteSpace=wrap;html=1;arcSize=18;strokeColor=none;fillColor=none;container=0;" vertex="1" parent="1">
          <mxGeometry x="3188" y="2790" width="163.86" height="230.28" as="geometry" />
        </mxCell>
        <mxCell id="31KH03YeSgKQCPKSt3aT-68" value="&lt;div style=&quot;text-align: start;&quot;&gt;&lt;font face=&quot;Comic Sans MS&quot;&gt;&lt;span style=&quot;font-size: 18px; text-wrap: nowrap;&quot;&gt;&lt;b&gt;&lt;i&gt;12&lt;/i&gt;&lt;/b&gt;&lt;/span&gt;&lt;/font&gt;&lt;/div&gt;" style="rounded=1;whiteSpace=wrap;html=1;fillColor=none;strokeColor=none;arcSize=10;container=0;fontColor=#FFFFFF;" vertex="1" parent="1">
          <mxGeometry x="2844.1790909090914" y="2940.003802816901" width="104.31818181818183" height="22.08450704225352" as="geometry" />
        </mxCell>
        <mxCell id="31KH03YeSgKQCPKSt3aT-69" value="&lt;div style=&quot;text-align: start;&quot;&gt;&lt;b style=&quot;font-family: &amp;quot;Comic Sans MS&amp;quot;; font-size: 18px; text-wrap: nowrap;&quot;&gt;&lt;i&gt;17&lt;/i&gt;&lt;/b&gt;&lt;br&gt;&lt;/div&gt;" style="rounded=1;whiteSpace=wrap;html=1;fillColor=none;strokeColor=none;arcSize=10;container=0;fontColor=#FFFFFF;" vertex="1" parent="1">
          <mxGeometry x="3012.5" y="2940" width="93.27" height="22.08" as="geometry" />
        </mxCell>
        <mxCell id="31KH03YeSgKQCPKSt3aT-71" value="&lt;font face=&quot;Comic Sans MS&quot;&gt;&lt;b&gt;Likes Strawberry&lt;/b&gt;&lt;/font&gt;" style="rounded=1;whiteSpace=wrap;html=1;fillColor=none;strokeColor=none;fontColor=#FFFFFF;arcSize=20;fontSize=16;container=0;" vertex="1" parent="1">
          <mxGeometry x="2890.9965909090906" y="2860.0005633802816" width="26.079545454545457" height="23.661971830985912" as="geometry" />
        </mxCell>
        <mxCell id="31KH03YeSgKQCPKSt3aT-72" value="&lt;div style=&quot;text-align: start;&quot;&gt;&lt;font color=&quot;#000000&quot; face=&quot;Comic Sans MS&quot;&gt;&lt;span style=&quot;font-size: 18px; text-wrap: nowrap;&quot;&gt;&lt;b&gt;&lt;i&gt;8&lt;/i&gt;&lt;/b&gt;&lt;/span&gt;&lt;/font&gt;&lt;/div&gt;" style="rounded=1;whiteSpace=wrap;html=1;fillColor=none;strokeColor=none;arcSize=10;container=0;fontColor=#FFFFFF;" vertex="1" parent="1">
          <mxGeometry x="2955" y="2940" width="40" height="22.08" as="geometry" />
        </mxCell>
      </root>
    </mxGraphModel>
  </diagram>
</mxfile>
